<?xml version="1.0" encoding="utf-8"?>
<!-- Generator: Adobe Illustrator 16.0.0, SVG Export Plug-In . SVG Version: 6.00 Build 0)  -->
<!DOCTYPE svg PUBLIC "-//W3C//DTD SVG 1.1//EN" "http://www.w3.org/Graphics/SVG/1.1/DTD/svg11.dtd">
<svg version="1.1" id="Layer_1" xmlns="http://www.w3.org/2000/svg" xmlns:xlink="http://www.w3.org/1999/xlink" x="0px" y="0px"
	 width="197.28px" height="197.23px" viewBox="0 0 197.28 197.23" enable-background="new 0 0 197.28 197.23" xml:space="preserve">
<g>
	<g>
		<path fill="#FFFFFF" d="M109.324,106.878c3.979-0.773,7.33-0.112,9.271,1.826l15.021,14.417l8.633-8.634l-15.02-14.417
			c-3.082-3.082-7.077-4.966-11.672-5.539l19.385-19.386l-8.635-8.633l-0.031,0.031l-5.635-5.635l-19.37,19.371
			c-0.535-4.413-2.278-8.385-5.322-11.429L81.763,54.67l-8.633,8.632l14.185,14.185c2.443,2.443,2.63,6.804,1.014,11.544
			c-1.958,0.659-3.88,1.017-5.673,1.017c-1.733,0-4.153-0.355-5.849-2.052L62.623,73.811l-8.635,8.633l14.185,14.188
			c2.976,2.975,6.889,4.777,11.417,5.332l-19.361,19.36l8.635,8.632l0.031-0.031l5.636,5.637l19.463-19.464
			c0.539,4.53,2.327,8.616,5.46,11.75l14.416,14.417l8.634-8.635l-14.415-14.416c-2.507-2.507-2.76-6.918-1.195-11.691
			C107.703,107.262,108.516,107.034,109.324,106.878z M103.556,104.23c-1.594,0.649-3.172,1.453-4.709,2.404
			c0.459-1.755,1.098-3.528,1.909-5.29c1.732-0.798,3.493-1.431,5.258-1.893C105.031,101.029,104.212,102.633,103.556,104.23z
			 M136.276,114.487l-2.661,2.66l-12.034-11.428c-2.214-2.217-5.364-3.386-9.111-3.386c-1.085,0-2.225,0.104-3.39,0.302
			c0.781-1.375,1.694-2.736,2.738-4.051c0.229-0.007,0.46-0.018,0.686-0.018c4.741,0,8.799,1.552,11.739,4.49L136.276,114.487z
			 M111.32,92.796c-0.554,0.553-1.081,1.118-1.589,1.69c-0.901,0.091-1.814,0.224-2.732,0.402c-0.98,0.19-1.96,0.433-2.938,0.718
			c1.238-1.77,2.661-3.486,4.257-5.12c0.106-0.104,0.217-0.203,0.321-0.308l17.683-17.681l2.647,2.647L111.32,92.796z
			 M120.641,66.881l2.647,2.65l-17.617,17.617c-0.117,0.118-0.229,0.239-0.344,0.358c-1.627,1.591-3.354,3.028-5.153,4.288
			c0.56-1.912,0.936-3.816,1.128-5.682c0.575-0.509,1.143-1.032,1.69-1.579L120.641,66.881z M94.464,95.104
			c-1.751,0.816-3.526,1.457-5.294,1.927c0.989-1.574,1.817-3.17,2.482-4.761c1.601-0.675,3.195-1.515,4.753-2.492
			C95.939,91.543,95.291,93.328,94.464,95.104z M90.302,74.5L79.104,63.302l2.66-2.661l11.199,11.198
			c3.074,3.073,4.463,7.374,4.318,12.146c-1.285,1.036-2.618,1.958-3.972,2.75C94.157,81.853,93.231,77.43,90.302,74.5z
			 M59.959,82.444l2.664-2.661l11.198,11.2c2.152,2.152,5.207,3.291,8.835,3.291c1.102,0,2.243-0.115,3.402-0.32
			c-0.783,1.345-1.693,2.677-2.727,3.967c-0.241,0.008-0.483,0.023-0.722,0.023c-4.678,0-8.637-1.487-11.45-4.3L59.959,82.444z
			 M83.851,103.675c0.545-0.546,1.066-1.104,1.569-1.667c1.882-0.196,3.791-0.573,5.697-1.138c-1.225,1.741-2.629,3.433-4.199,5.045
			c-0.128,0.126-0.26,0.247-0.387,0.375l-17.681,17.682l-2.648-2.648L83.851,103.675z M74.529,129.586l-2.649-2.648l17.618-17.615
			c0.135-0.136,0.263-0.273,0.396-0.41c1.635-1.596,3.371-3.033,5.177-4.293c-0.551,1.898-0.921,3.791-1.111,5.648
			c-0.606,0.534-1.201,1.09-1.782,1.67L74.529,129.586z M105.099,122.199l11.43,11.43l-2.66,2.66l-11.429-11.429
			c-3.161-3.16-4.596-7.569-4.452-12.445c1.286-1.027,2.612-1.947,3.972-2.723C101.116,114.662,102.087,119.187,105.099,122.199z"/>
	</g>
	<g>
		<g>
			<path fill="#FFFFFF" d="M141.401,157.98l4.53,4.529c6.153-4.604,11.624-10.075,16.231-16.228l-4.53-4.531
				C153.098,147.968,147.618,153.445,141.401,157.98z"/>
		</g>
		<g>
			<path fill="#FFFFFF" d="M54.833,38.953l-4.529-4.532c-6.154,4.606-11.625,10.078-16.231,16.23l4.53,4.53
				C43.138,48.965,48.617,43.486,54.833,38.953z"/>
		</g>
		<g>
			<path fill="#FFFFFF" d="M98.118,183.968c19.442,0.002,37.383-6.535,51.763-17.509l-3.949-3.949
				c-13.345,9.99-29.9,15.911-47.813,15.909c-17.907,0-34.457-5.914-47.798-15.896l-3.949,3.948
				C60.747,177.438,78.68,183.968,98.118,183.968z"/>
		</g>
		<g>
			<path fill="#FFFFFF" d="M18.163,98.467c0-17.915,5.922-34.471,15.91-47.815l-3.948-3.949
				c-10.974,14.38-17.51,32.318-17.51,51.764c0,19.45,6.54,37.395,17.521,51.777l3.95-3.948
				C24.089,132.949,18.163,116.386,18.163,98.467z"/>
		</g>
		<g>
			<path fill="#FFFFFF" d="M166.123,46.718l-3.948,3.949c9.979,13.341,15.897,29.892,15.897,47.8
				c0,17.911-5.922,34.47-15.909,47.815l3.948,3.947c10.975-14.379,17.509-32.321,17.511-51.763
				C183.622,79.027,177.091,61.095,166.123,46.718z"/>
		</g>
		<g>
			<path fill="#FFFFFF" d="M98.118,12.963c-19.443,0-37.384,6.536-51.764,17.51l3.95,3.948c13.343-9.988,29.901-15.91,47.812-15.909
				c17.921,0,34.484,5.926,47.831,15.922l3.948-3.949C135.513,19.503,117.569,12.963,98.118,12.963z"/>
		</g>
		<g>
			<path fill="#FFFFFF" d="M145.947,34.434l-4.529,4.53c6.215,4.536,11.692,10.017,16.226,16.235l4.531-4.531
				C157.57,44.513,152.101,39.04,145.947,34.434z"/>
		</g>
		<g>
			<path fill="#FFFFFF" d="M50.32,162.522l4.531-4.531c-6.219-4.531-11.699-10.01-16.235-16.226l-4.53,4.53
				C38.692,152.447,44.165,157.918,50.32,162.522z"/>
		</g>
		<g>
			<path fill="#FFFFFF" d="M98.117,24.834c-16.166,0-31.123,5.25-43.284,14.119l0.499,0.497l0,0l3.384,3.384
				c11.129-7.933,24.725-12.618,39.401-12.617c14.685-0.001,28.286,4.69,39.419,12.628l0.459-0.458l2.926-2.926l0.497-0.497
				C129.254,30.088,114.292,24.834,98.117,24.834z"/>
		</g>
		<g>
			<path fill="#FFFFFF" d="M98.133,172.111c16.166,0,31.123-5.25,43.283-14.118l-0.497-0.498l0,0l-3.385-3.384
				c-11.13,7.934-24.725,12.618-39.401,12.617c-14.685,0-28.287-4.69-39.42-12.627l-0.458,0.458l-2.926,2.927l-0.497,0.496
				C66.995,166.857,81.958,172.111,98.133,172.111z"/>
		</g>
		<g>
			<path fill="#FFFFFF" d="M171.764,98.463c0-16.166-5.25-31.124-14.119-43.283l-0.497,0.497l0,0l-3.383,3.386
				c7.932,11.129,12.618,24.725,12.616,39.402c0,14.684-4.69,28.286-12.627,39.418l0.458,0.459l2.926,2.925l0.498,0.497
				C166.511,129.601,171.764,114.638,171.764,98.463z"/>
		</g>
		<g>
			<path fill="#FFFFFF" d="M24.487,98.48c0.001,16.166,5.251,31.123,14.119,43.285l0.498-0.499l0,0l3.383-3.384
				c-7.932-11.131-12.618-24.725-12.616-39.402c0-14.684,4.69-28.286,12.627-39.419l-0.459-0.458l-2.925-2.926l-0.498-0.497
				C29.742,67.343,24.487,82.306,24.487,98.48z"/>
		</g>
	</g>
</g>
</svg>
